<svg width="32" height="28" viewBox="0 0 32 28" fill="none" xmlns="http://www.w3.org/2000/svg">
    <g clip-path="url(#clip0_1669_25055)">
        <path
            d="M31.2203 7.02858H0.78125M30.4394 27.269C22.3199 27.269 17.4776 27.269 1.57064 27.269C1.13959 27.269 0.78125 26.9196 0.78125 26.4885V1.51291C0.78125 1.08186 1.13069 0.732422 1.56174 0.732422H30.4398C30.8708 0.732422 31.2203 1.08186 31.2203 1.51291V26.4885C31.2203 26.9196 30.8705 27.269 30.4394 27.269Z"
            stroke="black" stroke-width="1.56098" stroke-miterlimit="10" />
        <path fill-rule="evenodd" clip-rule="evenodd"
            d="M4.48733 3.07422C3.96468 3.07422 3.51172 3.49698 3.51172 4.04983C3.51172 4.60267 3.92984 5.02544 4.48733 5.02544C5.00998 5.02544 5.46294 4.60267 5.46294 4.04983C5.46294 3.5295 5.04482 3.07422 4.48733 3.07422Z"
            stroke="black" stroke-width="0.780488" stroke-miterlimit="10" />
        <path fill-rule="evenodd" clip-rule="evenodd"
            d="M7.99905 3.07422C7.4764 3.07422 7.02344 3.49698 7.02344 4.04983C7.02344 4.60267 7.44156 5.02544 7.99905 5.02544C8.52169 5.02544 8.97466 4.60267 8.97466 4.04983C8.97466 3.5295 8.55654 3.07422 7.99905 3.07422Z"
            stroke="black" stroke-width="0.780488" stroke-miterlimit="10" />
        <path
            d="M13.2502 20.1917L14.5766 18.1881L15.9037 20.1917H17.1383L15.1938 17.2502L17.0231 14.4814H15.79L14.5756 16.3112L13.3639 14.4814H12.1294L13.9578 17.2479L12.0078 20.1917H13.2502ZM24.1505 19.2864H25.1368V17.824H26.5458V16.8491H25.1368V15.3867H24.1505V16.8491H22.671V17.824H24.1505V19.2864Z"
            fill="black" />
        <path
            d="M18.9214 11H8.77225L6.69473 16.756L6.06391 14.9775L5 15.3471L6.68399 20.0977L9.5666 12.1142H18.9214V11Z"
            fill="black" />
    </g>
    <defs>
        <clipPath id="clip0_1669_25055">
            <rect width="32" height="28" fill="black" />
        </clipPath>
    </defs>
</svg>